<?xml version="1.0" standalone="no"?>
<!DOCTYPE svg PUBLIC "-//W3C//DTD SVG 20010904//EN"
 "http://www.w3.org/TR/2001/REC-SVG-20010904/DTD/svg10.dtd">
<svg version="1.0" xmlns="http://www.w3.org/2000/svg"
 width="226.000000pt" height="90.000000pt" viewBox="0 0 226.000000 90.000000"
 preserveAspectRatio="xMidYMid meet">

<g transform="translate(0.000000,90.000000) scale(0.100000,-0.100000)"
fill="#000000" stroke="none">
<path d="M455 791 c-137 -35 -228 -163 -210 -295 31 -238 317 -328 475 -149
72 83 87 199 39 300 -23 48 -86 109 -134 129 -42 17 -131 25 -170 15z m118
-21 c45 -36 70 -120 71 -240 1 -120 -18 -190 -64 -240 -59 -63 -140 -24 -177
84 -25 72 -24 233 0 304 35 100 109 140 170 92z"/>
<path d="M1537 791 c-66 -6 -67 -7 -47 -23 18 -16 20 -29 20 -118 0 -91 -8
-118 -25 -90 -3 6 -25 10 -48 10 -151 0 -202 -199 -76 -292 30 -22 111 -27
134 -8 11 9 15 9 15 1 0 -7 28 -11 81 -11 l81 0 -23 19 c-24 19 -24 20 -27
270 -2 138 -6 250 -10 249 -4 -1 -38 -4 -75 -7z m-27 -376 c0 -135 -6 -149
-50 -125 -91 49 -74 250 22 250 l28 0 0 -125z"/>
<path d="M830 562 c0 -4 9 -13 20 -20 18 -11 20 -23 20 -125 0 -117 -3 -127
-35 -145 -16 -9 3 -11 90 -11 87 0 106 2 90 11 -32 18 -35 28 -35 119 0 72 3
91 21 113 24 31 64 34 79 7 5 -11 10 -64 10 -119 0 -92 -2 -101 -22 -115 -22
-15 -16 -16 81 -16 102 -1 103 -1 80 18 -21 16 -23 29 -28 135 -6 108 -8 119
-30 137 -43 35 -107 23 -163 -29 l-28 -26 0 37 0 37 -75 0 c-41 0 -75 -3 -75
-8z"/>
<path d="M1790 552 c-72 -36 -103 -138 -65 -212 46 -90 197 -111 272 -38 18
18 33 35 33 39 0 4 -13 -6 -29 -22 -31 -31 -68 -37 -115 -19 -30 11 -66 65
-66 98 0 21 3 22 100 22 111 0 111 0 81 67 -21 44 -48 67 -95 79 -28 7 -28 6
-13 -17 8 -13 18 -45 22 -71 l6 -48 -57 0 -56 0 7 48 c3 26 13 57 21 70 18 28
4 29 -46 4z"/>
<path d="M671 98 c1 -24 3 -35 6 -25 2 9 11 17 18 17 7 0 16 -8 18 -17 3 -10
5 1 6 25 1 38 -1 42 -24 42 -23 0 -25 -4 -24 -42z m39 22 c0 -5 -7 -10 -15
-10 -8 0 -15 5 -15 10 0 6 7 10 15 10 8 0 15 -4 15 -10z"/>
<path d="M960 100 c0 -38 2 -40 30 -40 20 0 30 5 30 15 0 8 -4 15 -10 15 -5 0
-10 -4 -10 -10 0 -5 -7 -10 -15 -10 -10 0 -15 10 -15 30 0 20 5 30 15 30 8 0
15 -4 15 -10 0 -5 5 -10 10 -10 6 0 10 7 10 15 0 10 -10 15 -30 15 -28 0 -30
-2 -30 -40z"/>
<path d="M1262 100 c0 -25 2 -37 5 -27 2 9 11 17 18 17 7 0 16 -8 18 -17 3
-10 5 2 5 27 0 25 -2 37 -5 28 -2 -10 -11 -18 -18 -18 -7 0 -16 8 -18 18 -3 9
-5 -3 -5 -28z"/>
<path d="M1550 115 c0 -21 5 -25 30 -25 25 0 30 4 30 25 0 21 -5 25 -30 25
-25 0 -30 -4 -30 -25z m45 5 c3 -5 -3 -10 -15 -10 -12 0 -18 5 -15 10 3 6 10
10 15 10 5 0 12 -4 15 -10z"/>
<path d="M1563 63 c9 -2 25 -2 35 0 9 3 1 5 -18 5 -19 0 -27 -2 -17 -5z"/>
</g>
</svg>
